<?xml version="1.0" standalone="no"?>
<!DOCTYPE svg PUBLIC "-//W3C//DTD SVG 20010904//EN"
 "http://www.w3.org/TR/2001/REC-SVG-20010904/DTD/svg10.dtd">
<svg version="1.0" xmlns="http://www.w3.org/2000/svg"
 width="1600.000000pt" height="1600.000000pt" viewBox="0 0 1600.000000 1600.000000"
 preserveAspectRatio="xMidYMid meet">
<metadata>
Created by potrace 1.14, written by Peter Selinger 2001-2017
</metadata>
<g transform="translate(0.000000,1600.000000) scale(0.100000,-0.100000)"
fill="#000000" stroke="none">
<path d="M0 8000 l0 -8000 7998 2 7997 3 3 7998 2 7997 -8000 0 -8000 0 0
-8000z m4638 2202 c73 -52 93 -160 53 -275 -49 -139 -66 -375 -41 -564 36
-268 83 -432 225 -793 143 -359 194 -525 236 -767 21 -122 37 -410 25 -457
-19 -75 -118 -134 -209 -124 -68 8 -104 31 -230 147 -114 106 -177 149 -197
136 -16 -10 -42 -65 -56 -120 -30 -111 -7 -265 59 -390 17 -33 63 -92 102
-131 71 -72 77 -75 296 -177 153 -71 207 -132 229 -258 8 -45 10 -423 8 -1259
-4 -1338 2 -1229 -78 -1395 -84 -174 -237 -300 -430 -355 -131 -36 -670 -51
-1100 -30 -209 10 -272 25 -404 93 -214 111 -365 369 -368 628 -1 86 15 130
62 173 54 49 98 58 300 61 197 2 238 12 264 64 21 39 20 100 -1 123 -24 26
-92 43 -306 77 -118 19 -200 37 -220 48 -45 27 -71 76 -69 135 1 62 26 105 76
131 43 23 46 23 531 -24 201 -19 240 -20 305 -9 138 23 191 66 198 160 8 106
-20 138 -158 185 -97 33 -225 60 -431 90 -425 62 -454 69 -493 116 -14 17 -31
48 -37 69 -23 75 37 171 115 185 33 7 94 0 476 -52 246 -33 466 -38 521 -10
42 21 59 52 66 124 16 149 -48 209 -307 287 -122 36 -479 106 -644 126 -147
18 -211 72 -211 180 0 63 26 110 76 136 34 17 119 20 169 5 44 -14 244 -14
292 -1 49 14 93 62 109 118 27 96 10 153 -65 219 -66 58 -152 96 -311 139 -77
21 -159 46 -182 56 -57 25 -100 71 -114 121 -35 131 -3 526 68 837 49 215 85
322 213 630 110 267 179 514 205 737 28 238 17 413 -36 557 -57 157 -23 268
94 306 51 16 99 7 247 -49 193 -73 241 -84 360 -84 142 0 215 20 530 146 8 4
47 5 85 4 55 -2 77 -7 103 -25z m2433 -2690 c34 -17 65 -44 84 -71 l30 -43 6
-1361 c4 -989 9 -1376 17 -1412 19 -80 79 -191 132 -244 55 -55 142 -102 240
-128 61 -17 189 -18 2180 -18 l2115 0 80 23 c44 13 102 35 129 50 71 38 149
120 185 194 63 128 61 71 61 1544 l0 1341 23 44 c13 24 43 58 66 74 l43 30
299 3 c326 3 359 -1 413 -49 72 -62 67 53 63 -1619 -3 -1491 -4 -1506 -25
-1610 -42 -208 -83 -318 -168 -445 -37 -56 -137 -158 -200 -205 -158 -115
-435 -195 -759 -219 -177 -13 -4450 -14 -4633 -1 -745 53 -1074 330 -1154 970
-10 82 -13 421 -13 1560 l0 1455 22 40 c27 51 57 79 113 104 42 19 65 21 321
21 l277 0 53 -28z"/>
</g>
</svg>
